<svg xmlns="http://www.w3.org/2000/svg" width="24" height="24" fill="none">
  <path d="M21.0808 4.08454c.0817-.26553.0099-.55446-.1865-.7509-.1964-.19644-.4854-.2682-.7509-.1865L1.75863 8.80399c-.2994.09213-.51001.36063-.52817.67336-.01816.31273.15995.60385.44668.72995l8.57186 3.7716 3.7716 8.5719c.1262.2867.4173.4648.73.4467.3127-.0182.5812-.2288.6734-.5282l5.6568-18.38476ZM10.6505 12.5168 4.12458 9.64541 19.2305 4.99743l-4.648 15.10597-2.8714-6.526 3.3496-3.3495L14 9.16725l-3.3495 3.34955Z" fill="#000"/>
</svg>